<?xml version="1.0" standalone="no"?>
<!DOCTYPE svg PUBLIC "-//W3C//DTD SVG 20010904//EN"
 "http://www.w3.org/TR/2001/REC-SVG-20010904/DTD/svg10.dtd">
<svg version="1.0" xmlns="http://www.w3.org/2000/svg"
 width="360.000000pt" height="360.000000pt" viewBox="0 0 360.000000 360.000000"
 preserveAspectRatio="xMidYMid meet">
<metadata>
Created by potrace 1.14, written by Peter Selinger 2001-2017
</metadata>
<g transform="translate(0.000000,360.000000) scale(0.100000,-0.100000)"
fill="#000000" stroke="none">
<path d="M2904 3170 c-39 -8 -100 -37 -130 -63 -14 -11 -90 -111 -251 -327
-114 -154 -306 -405 -313 -410 -3 -3 -17 -21 -30 -40 -13 -19 -27 -37 -30 -40
-3 -3 -58 -70 -120 -150 -63 -80 -119 -150 -125 -156 -5 -6 -23 -29 -40 -50
-16 -21 -44 -54 -60 -74 -17 -19 -60 -71 -95 -115 -73 -90 -107 -130 -132
-157 -10 -10 -18 -20 -18 -23 0 -3 -8 -13 -17 -23 -10 -10 -29 -32 -43 -48
-14 -16 -47 -56 -74 -88 l-49 -58 -45 49 c-25 26 -77 82 -116 123 -39 41 -134
142 -210 223 -172 183 -203 201 -341 206 -184 6 -327 -101 -375 -279 -37 -137
9 -267 149 -417 35 -37 124 -131 196 -208 72 -77 178 -192 236 -255 203 -225
267 -278 379 -321 89 -34 218 -31 300 8 95 44 156 101 325 299 28 32 57 65 65
74 8 9 32 36 52 60 20 25 48 59 62 75 56 64 98 115 201 240 59 72 114 139 124
150 35 42 329 413 376 475 28 36 52 67 55 70 30 30 490 648 490 659 0 5 5 11
10 13 6 2 24 41 40 87 29 83 34 165 16 240 -24 102 -116 194 -236 236 -55 19
-170 27 -226 15z"/>
</g>
</svg>
