<svg xmlns="http://www.w3.org/2000/svg" viewBox="0 0 1000 200">
	<path fill="#182328" d="m451.3 84.1c-22.3 0-40.6 16.8-40.6 39.9 0 23 18.2 39.9 40.6 39.9 22.3 0 40.6-17 40.6-39.9 0.1-23-18.3-39.9-40.6-39.9zm0 64.2c-12.2 0-22.9-10-22.9-24.3 0-14.4 10.5-24.3 22.9-24.3 12.2 0 22.9 9.9 22.9 24.3-0.1 14.5-10.7 24.3-22.9 24.3zm-88.6-64.2c-22.3 0-40.6 16.8-40.6 39.9 0 23 18.2 39.9 40.6 39.9 22.3 0 40.6-17 40.6-39.9-0.1-23-18.2-39.9-40.6-39.9zm0 64.2c-12.3 0-22.9-10-22.9-24.3 0-14.4 10.5-24.3 22.9-24.3 12.2 0 22.9 9.9 22.9 24.3-0.1 14.5-10.6 24.3-22.9 24.3zm-105.3-51.8v17h41.1c-1.2 9.5-4.4 16.4-9.4 21.3-6 5.9-15.3 12.5-31.7 12.5-25.3 0-45.1-20.2-45.1-45.1s19.8-45.1 45.1-45.1c13.6 0 23.6 5.3 30.9 12.1l12.1-11.9c-10.3-9.6-23.9-17.1-43-17.1-34.7 0-63.8 27.9-63.8 62.2s29.2 62.2 63.8 62.2c18.7 0 32.7-6 43.8-17.5 11.3-11.2 14.9-27 14.9-39.7 0-4-0.4-7.6-0.9-10.7l-57.8-0.2zm430.9 13.1c-3.3-9-13.6-25.4-34.7-25.4-20.8 0-38.1 16.2-38.1 39.9 0 22.3 17.2 39.9 40.1 39.9 18.6 0 29.3-11.2 33.8-17.7l-13.7-9.1c-4.6 6.7-10.9 11-19.9 11s-15.4-4.1-19.6-12.1l54.1-22.1-2-4.4zm-55.2 13.3c-0.5-15.4 12.1-23.4 21.2-23.4 7.1 0 13.1 3.5 15 8.5l-36.2 14.9zm-43.9 38.8h17.8v-117.5h-17.9l0.1 117.5zm-29.2-68.6h-0.6c-4-4.6-11.6-8.9-21.3-8.9-20.3 0-38.8 17.6-38.8 40.1s18.5 39.8 38.8 39.8c9.6 0 17.3-4.2 21.3-9.1h0.6v5.8c0 15.3-8.2 23.5-21.6 23.5-10.9 0-17.6-7.7-20.4-14.3l-15.4 6.4c4.5 10.7 16.3 23.6 35.8 23.6 20.8 0 38.4-12.1 38.4-41.6v-71.8h-16.8v6.5zm-20.4 55.2c-12.2 0-22.5-10.1-22.5-24.1 0-14.1 10.3-24.4 22.5-24.4 12.1 0 21.6 10.3 21.6 24.4 0.1 14-9.5 24.1-21.6 24.1zm231.9-104.1h-42.5v117.5h17.7v-44.6h24.8c19.6 0 39-14.1 39-36.5s-19.3-36.4-39-36.4zm0.6 56.6h-25.3v-40.3h25.3c13.2 0 20.8 10.9 20.8 20.2 0 9.1-7.6 20.1-20.8 20.1zm109.6-16.8c-12.8 0-26.2 5.7-31.6 18l15.8 6.5c3.3-6.5 9.6-8.6 16.2-8.6 9.2 0 18.5 5.5 18.6 15.2v1.3c-3.2-1.8-10.1-4.5-18.5-4.5-17 0-34.3 9.2-34.3 26.5 0 15.8 13.9 25.9 29.5 25.9 11.9 0 18.5-5.3 22.6-11.6h0.6v9.1h17.1v-45.1c0.1-21.1-15.6-32.7-36-32.7zm-2.2 64.3c-5.8 0-13.9-2.8-13.9-10 0-9.1 10.1-12.6 18.7-12.6 7.8 0 11.4 1.7 16.2 4-1.2 10.9-10.7 18.6-21 18.6zm100.7-61.7-20.4 51h-0.6l-21.1-51h-19l31.7 71.1-18.1 39.6h18.5l48.8-110.8-19.8 0.1zm-159.9 75.1h17.9v-117.5h-17.9v117.5z"/>
	<path fill="#182328" d="m2.6 33.4c-1.7 1.7-2.6 4.4-2.6 7.8v122.9c0 3.4 1 6.1 2.6 7.8l0.4 0.4 69.7-68.9v-1.6l-69.7-68.8-0.4 0.4zm0.4 139.8 70.5-70.6-70.5-70.6c-1.9 1.1-3 3.6-3 7v127.3c0 3.3 1.1 5.7 3 6.9zm73.1-72.6 21-21-85.7-46.9c-1.4-0.8-3.1-1.3-4.7-1.3l69.4 69.2zm0 3.9-69.6 69.7c1.7 0 3.5-0.5 4.9-1.3l85.7-47.1-21-21.3zm52-7.9-28.5-15.6-21.6 21.6 21.7 21.7 28.3-15.6c6.1-3.3 6.1-8.8 0.1-12.1z"/>
</svg>