<svg xmlns="http://www.w3.org/2000/svg" viewBox="0 0 1000 200">
	<path fill="#182328" d="m111.6 92.3c0.2-12.8 6.9-24.6 17.8-31.3-6.9-9.8-18.1-15.9-30.1-16.3-12.7-1.3-25 7.6-31.4 7.6-6.6 0-16.6-7.4-27.2-7.3-14.1 0.4-26.9 8.2-33.7 20.6-14.7 25.2-3.8 62.4 10.2 82.8 7 10 15.1 21.1 25.9 20.8 10.5-0.4 14.4-6.7 27-6.7 12.5 0 16.2 6.7 27.1 6.4 11.2-0.2 18.3-10 25.1-20.1 5-7.2 8.9-15 11.5-23.4-13.5-5.6-22.2-18.6-22.2-33.1zm-20.6-61c6.1-7.3 9.1-16.8 8.4-26.3-9.3 1-18 5.5-24.2 12.5-6.1 7-9.2 16.1-8.6 25.3 9.4 0.1 18.5-4.2 24.4-11.5z"/>
	<path fill="#182328" d="m306.4 129.4h-48.8l-11.7 34.6h-20.7l46.3-128.3h21.3l46.3 128.3h-21l-11.7-34.6zm-43.8-16.1h38.7l-19.1-56.3h-0.5l-19.1 56.3zm176.5 4c0 29.1-15.5 47.7-39.1 47.7-12.1 0.7-23.5-5.7-29.5-16.3h-0.4v46.3h-19.1v-124.4h18.5v15.5h0.4c6.2-10.5 17.5-17 29.7-16.6 23.9 0 39.5 18.8 39.5 47.8zm-19.7 0c0-18.9-9.7-31.3-24.7-31.3-14.6 0-24.5 12.8-24.5 31.3 0 18.8 9.9 31.4 24.5 31.4 15 0 24.7-12.3 24.7-31.4zm122.6 0c0 29.1-15.5 47.7-39.1 47.7-12.1 0.7-23.5-5.7-29.5-16.3h-0.4v46.3h-19.2v-124.4h18.5v15.5h0.4c6.2-10.5 17.5-17 29.7-16.6 23.9 0 39.6 18.8 39.6 47.8zm-19.8 0c0-18.9-9.7-31.3-24.7-31.3-14.6 0-24.5 12.8-24.5 31.3 0 18.8 9.9 31.4 24.5 31.4 15 0 24.7-12.3 24.7-31.4zm87.8 11c1.4 12.8 13.8 21 30.6 21 16.2 0 27.8-8.3 27.8-19.9 0-10-7-15.9-23.7-20l-16.6-3.9c-23.5-5.7-34.5-16.7-34.5-34.6 0-22.1 19.3-37.4 46.7-37.4 27.1 0 45.6 15.3 46.3 37.4h-19.3c-1.2-12.8-11.7-20.5-27.2-20.5-15.4 0-26 7.8-26 19.2 0 9.1 6.7 14.3 23.3 18.4l14.1 3.4c26.3 6.2 37.2 16.8 37.2 35.5 0 23.9-19.1 39.1-49.5 39.1-28.4 0-47.6-14.7-48.8-37.9l19.6 0.2zm120.1-79.9v22.1h17.8v15.3h-17.8v51.6c0 8 3.6 11.7 11.3 11.7 2.1 0 4.2-0.1 6.3-0.4v15.1c-3.6 0.7-7.1 0.9-10.7 0.9-18.9 0-26.3-7.1-26.3-25.3v-53.6h-13.5v-15.2h13.5v-22.2h19.4zm28.1 68.9c0-29.5 17.4-47.9 44.3-47.9 27.1 0 44.3 18.4 44.3 47.9s-17.1 47.9-44.3 47.9-44.3-18.5-44.3-47.9zm69.1 0c0-20.1-9.2-32.1-24.7-32.1s-24.7 12-24.7 32.1c0 20.3 9.2 32.1 24.7 32.1s24.7-11.9 24.7-32.1zm35.4-46.7h18.3v15.9h0.4c2.5-10.3 12-17.2 22.5-16.8 2.2 0 4.5 0.3 6.6 0.7v17.9c-2.8-0.8-5.7-1.2-8.7-1.2-10.7-0.4-19.7 7.9-20.1 18.5 0 1.1 0 2 0.1 3v55.4h-19.2l0.1-93.4zm136.2 66c-2.6 17-19.1 28.7-40.3 28.7-27.2 0-44.1-18.2-44.1-47.5s17-48.3 43.3-48.3c25.9 0 42.1 17.8 42.1 46v6.6h-66v1.2c-1.2 13.4 8.7 25.3 22.1 26.4 1.1 0.1 2 0.1 3 0.1 9.3 0.9 18.2-4.5 21.6-13.2h18.3zm-64.8-28h46.7c0.7-12.4-8.8-23-21.2-23.7h-1.7c-13-0.1-23.7 10.4-23.8 23.5v0.2z"/>
</svg>