<svg xmlns="http://www.w3.org/2000/svg" viewBox="0 0 815 285">
	<path fill="#333" d="m86.3 23.4-10.6 9.8c-6.5-6-15.9-9.8-24.7-9.8-24.4 0-34.8 17.9-34.8 35.5 0 17.2 10.9 33.8 34.8 33.8 9.1 0 18.2-3.4 25-10.6l11 10.9c-9.1 9.1-22 13.8-35.5 13.8-34.1 0.2-49.7-23.6-49.7-48.3s16.2-49.5 50.1-49.5c13.1 0 25.3 4.4 34.4 14.4zm83.3 62.9-8.1 19h-15.9l41.6-95.3h15.3l40.3 95.1h-17.2l-8.1-19h-47.8v0.2h-0.1zm23.8-57.2-18.2 43.3h36.3c-0.1-0.1-18.1-43.3-18.1-43.3zm152.8-18.3c21.6 0 33.5 15.3 33.5 30.7 0 13.5-6.5 26.7-26 29.4l29.8 34.2h-20.3l-27.8-32.9h-18.5v32.9h-15.3v-94.3h44.6zm-29.1 48h28.8c12.5 0 18.2-8.1 18.2-16.9 0-8.1-5-16.9-17.9-16.9h-29.1v33.8zm160.2-34.1v80.5h-15.6v-80.5h-30.7v-13.9h77.6v13.8l-31.3 0.1zm110.3 0.3v26.3h46.7v13.8h-46.7v26.3h50.4v15h-66v-95.6h64.6v13.8h-49.3v0.4h0.3z"/>
	<path fill="#0ba100" d="m44.7 275.8-42.3-102.6h28.8l27.2 72.5 27.5-72.4h28.8l-43.7 102.7h-26.3v-0.2zm140.2-79.2v15.9h45.7v23.1h-45.7v15.9h49.1v23.5h-74.2v-101.5h73.8v23.4h-48.8l0.1-0.3zm150.9-23.4c25 0.3 38.5 16.6 38.5 34.8 0 12.5-4.1 26.7-21.6 32.5l28.8 34.8h-32.9l-23.7-31.9h-13.5v31.9h-25.7v-102.1h50.1zm-25.7 47.8h26c9.4 0 13.5-7.2 13.5-12.5 0-6-4.1-12.2-13.8-12.2h-25.7v24.7zm160.1-24.4v78.9h-25.7v-78.9h-29.8v-23.4h86v23.4h-30.5zm101.5 0v15.9h45.7v23.1h-45.7v15.9h49.1v23.5h-74.5v-101.5h73.8v23.4h-48.5l0.1-0.3z"/>
	<path fill="#333" d="m812.2 143.1v-4.7h2.8v28h-2.8v-4.7c-2.3 3.4-6 5.4-10.6 5.4-7.5 0-13.5-6-13.5-14.3-0.2-3.7 1.3-7.3 3.9-10.1 2.4-2.8 6-4.2 9.6-4.2 4.3-0.8 8.7 0.8 10.6 4.6zm-21.6 8.6c0 7.3 4.7 11.9 10.7 11.9 7.5 0 11.1-6 11.1-11.9s-3.6-11.9-11.1-11.9c-5.7 0.3-10.7 5.1-10.7 11.9zm10.6-18.9-6.7-9.1h3.4l5.5 9.1h-2.2z"/>
	<path fill="#333" opacity="0.3" d="m798.9 182.9h5.4v91.6h-5.4v-91.6zm0-172.6h5.4v91.6h-5.4v-91.6z"/>
</svg>
