<svg xmlns="http://www.w3.org/2000/svg" viewBox="0 0 100 25">
	<path fill="#ffffff" d="m47.4 11.6c-2.7 0-5.1 0.3-5.1 4.5v8.9h2v-4.9c0.9 0.4 2.1 0.5 3.1 0.5 2.7 0 5.1-0.3 5.1-4.5s-2.4-4.5-5.1-4.5m0 7.3c-3 0-3.1-0.6-3.1-2.8 0-2.1 0.1-2.8 3.1-2.8s3.1 0.6 3.1 2.8-0.1 2.8-3.1 2.8m-27.3-11.7-5.4 11.1-5.4-11v-0.1h-2.3l6.7 13.3v0.1h1.8l6.7-13.4h-2.1zm49.6 4.4c-1.4 0-4.8 0-4.8 4.5s3.4 4.5 4.8 4.5h4.5v-1.7h-4.5c-2.3 0-2.7-0.6-2.8-2.2h7.8v-0.6c0-4.5-3.4-4.5-5-4.5m-2.7 3.4c0.2-1.1 0.7-1.7 2.7-1.7 2.2 0 2.7 0.6 2.8 1.7h-5.5zm-8.3-3.4c-1.4 0-4.8 0-4.8 4.5s3.4 4.5 4.8 4.5h4.5v-1.7h-4.5c-2.3 0-2.7-0.6-2.8-2.2h7.8v-0.6c-0.1-4.5-3.4-4.5-5-4.5m-2.8 3.4c0.2-1.1 0.7-1.7 2.7-1.7 2.2 0 2.7 0.6 2.8 1.7h-5.5zm-19.9-3.4c-1.4 0-4.8 0-4.8 4.5s3.4 4.5 4.8 4.5h4.5v-1.7h-4.5c-2.3 0-2.7-0.6-2.8-2.2h7.8v-0.6c-0.1-4.5-3.4-4.5-5-4.5m-2.7 3.4c0.2-1.1 0.7-1.7 2.7-1.7 2.2 0 2.7 0.6 2.8 1.7h-5.5zm-8.4-3.4c-1.4 0-4.8 0-4.8 4.5s3.4 4.5 4.8 4.5h4.5v-1.7h-4.5c-2.3 0-2.7-0.6-2.8-2.2h7.8v-0.6c-0.1-4.5-3.4-4.5-5-4.5m-2.8 3.4c0.2-1.1 0.7-1.7 2.7-1.7 2.2 0 2.7 0.6 2.8 1.7h-5.5z"/>
	<path fill="#ec008c" d="m91.8 12.9c-0.6 0.7-1.1 1.4-1.8 1.9-0.1 0.1-0.1 0.1-0.1 0 2.3-2.5 4.7-8 1.5-13.4 0 0-1.3 0.9-2.3 2.7-1-1.6-2.5-2.9-4.3-4.1 0 0-4.7 5.2-2.6 12.8-6 0.8-3.8 5.4-2.8 6.1 0 0 0.1 0 0-0.1-0.3-0.5-1.3-2.3 0.7-4 1-0.9 3.2-1.2 3.2-1.2-0.5-3.6-0.5-6.9 2-10.6 0.3 0.2 3.9 1.8 4.1 7.2 0.3 3.4-1.4 6.1-3.1 7.1-3 1.6-6.4 2.4-9.3 3.1-0.2 0.1-0.2 0.1 0 0.1 6.9-0.3 13.1-3.4 15.5-6.4 0.5-0.6 0.7-1.2 0.4-1.6s-0.9 0.3-1.1 0.4m-1.1-4.4c-0.1-1-0.3-2-0.7-3 0.7-1.4 1.4-1.9 1.4-1.9s1.4 3.6 0.2 7.4c-0.8 2.3-1.7 3.7-2.2 4.3l-0.1 0.1c1-1.6 1.7-4.1 1.4-6.9"/>
</svg>