<svg xmlns="http://www.w3.org/2000/svg" viewBox="0 0 645 285">
	<path fill="#333" d="m60.2 10.2-7.3 7.2c-4.6-4.5-10.9-7-17.4-7.2-17.1 0-24.7 13.1-24.7 26.2 0 12.7 7.6 24.9 24.7 24.9 6.6 0 13.1-2.8 17.8-7.6l7.6 7.8c-6.4 6.5-15.8 10.2-25.3 10.2-24.5 0.1-35.6-17.2-35.6-35.6s11.4-36.1 35.4-36.1c9.5 0 18 3.3 24.8 10.2zm62.7 47.1-6 14.4h-11.9l30.7-71.7h11.3l29.8 71.8h-12.6l-6-14.4c-0.1-0.1-35.3-0.1-35.3-0.1zm17.5-42.7-13.7 32.9h26.9l-13.2-32.9zm108-14.6c16.2 0 24.8 11.5 24.8 23.3 0 10.2-4.9 20.3-19.1 22.4l22.1 26.1h-14.3l-21.1-25.1h-14.2v25.1h-11.3v-71.8h33.1zm-21.1 36.2h21.7c9.5 0 13.9-6.1 13.9-12.9 0-6.1-4.1-12.9-13.5-12.9h-22v25.7h-0.1zm120.4-25.7v61.2h-11.1v-61.2h-21.7v-10.5h55.3v10.5h-22.5zm83.9 19.7h35.3v10.6h-35.3v19.8h37.9v11.3h-49.7v-71.9h48.4v10.5h-36.6"/>
	<path fill="#ec008c" d="m41 110.4c20.1 0.3 31.3 13.1 31.3 28.2 0 10.3-3.4 21.5-17.6 26.4l22.7 28.2h-26.6l-19.1-25.7h-11v25.7h-20.7v-82.8h41zm-20.9 39h21.2c7.8 0 10.6-5.8 10.6-10.3 0-5.2-3.6-9.7-11-9.8h-20.1c0-0.1-0.7 20.1-0.7 20.1zm206.3 5.6c0 22.1-13.4 43.9-44.4 43.9s-44-21.7-44-43.9 13.4-44.5 44.4-44.5c30.6-0.3 44 22.1 44 44.5zm-67.6 0c0 13.1 5.6 24.4 23.3 24.4s23.3-11.3 23.3-24.4-5.6-25.7-23.3-25.7-23.3 12.5-23.3 25.7zm191.3-30.5-12.9 13.7c-6.1-5-11.1-8.6-21.3-8.6-10.9 0-13.9 4.4-13.9 7.3 0 11 51.6 5.3 51.6 35.5 0 18.3-18 26.6-38 26.6s-34.6-9.7-39.4-22.3l18-9.3c3 8.6 11.1 12.3 22 12.3 10.2 0 15.9-1.6 15.9-6.6 0-11.3-51.6-4-51.6-35.9 0-17.6 17-26.5 34.6-26.5 19.1-0.5 30.6 7.8 35 13.8zm73.8 4.9v12.9h37v18.7h-37v13.7h40v18.7h-60.7v-82.8h59.5v18.8c0.1-0.2-38.8 0.2-38.8 0z"/>
	<path fill="#000" d="m384 243.8c-8.2 0-15.6 1.1-15.6 13.8v27.4h6.1v-15.1c2.9 1.3 6.5 1.5 9.5 1.5 8.2 0 15.6-1.1 15.6-13.8 0.2-12.8-7.2-13.8-15.6-13.8m0 22.2c-9.3 0-9.5-1.7-9.5-8.5 0-6.6 0.4-8.5 9.5-8.5s9.7 1.9 9.7 8.5c0 6.7-0.4 8.5-9.7 8.5m-83.9-35.9-16.7 34.1-16.7-33.9-0.1-0.1h-6.8l20.7 41.1 0.1 0.1h5.4l20.7-41.2-6.6-0.1zm152.7 13.7c-4.5 0-14.8 0-14.8 13.8s10.3 13.8 14.8 13.8h13.8v-5.2h-13.8c-7 0-8.5-1.7-8.7-6.8h23.9v-1.9c-0.1-13.7-10.1-13.7-15.2-13.7 0.2 0 0 0 0 0zm-8.3 10.3c0.5-3.4 2-5.2 8.5-5.2 6.8 0 8.4 1.9 8.7 5.2h-17.2zm-25.7-10.3c-4.5 0-14.8 0-14.8 13.8s10.3 13.8 14.8 13.8h13.8v-5.2h-13.8c-7 0-8.5-1.7-8.7-6.8h23.9v-1.9c-0.1-13.7-10.3-13.7-15.2-13.7zm-8.4 10.3c0.5-3.4 2.1-5.2 8.5-5.2 6.8 0 8.4 1.9 8.7 5.2h-17.2zm-61.2-10.3c-4.5 0-14.8 0-14.8 13.8s10.3 13.8 14.8 13.8h13.8v-5.2h-13.8c-7 0-8.5-1.7-8.7-6.8h23.9v-1.9c-0.1-13.7-10.3-13.7-15.2-13.7zm-8.5 10.3c0.5-3.4 2.1-5.2 8.5-5.2 6.8 0 8.4 1.9 8.7 5.2h-17.2zm-25.7-10.3c-4.5 0-14.8 0-14.8 13.8s10.3 13.8 14.8 13.8h13.8v-5.2h-13.8c-7 0-8.5-1.7-8.7-6.8h23.9v-1.9c-0.1-13.7-10.3-13.7-15.2-13.7zm-8.5 10.3c0.5-3.4 2.1-5.2 8.5-5.2 6.8 0 8.4 1.9 8.7 5.2h-17.2z"/>
	<path fill="#ec008c" d="m520.8 247.8c-1.6 2.1-3.4 4.1-5.4 5.8-0.3 0.3-0.5 0.3-0.3 0 6.9-7.7 14.4-24.7 4.8-41.4-2.9 2.3-5.3 5-7 8.4-3.2-4.9-7.7-9-13.4-12.6 0 0-14.3 16.2-8 39.5-18.3 2.5-11.7 16.8-8.7 18.8 0.1 0.1 0.3 0 0-0.3-1.1-1.6-3.8-7.2 2-12.5 3.2-2.9 9.8-3.6 9.8-3.6-1.5-11.3-1.5-21.3 6.2-32.6 0.9 0.7 12.1 5.6 12.5 22.1 0.9 10.3-4.5 18.7-9.7 22-9.3 5-19.6 7.4-28.5 9.5-0.8 0.1-0.5 0.3 0 0.3 21.3-0.9 40.3-10.6 47.6-19.8 1.5-1.7 2-3.7 1.1-4.8-0.9-0.8-2.6 0.9-3 1.2m-3.4-13.6c-0.3-3.2-1.1-6.4-2.3-9.3 2.1-4.2 4.1-6 4.1-6s4.4 11.3 0.5 22.7c-2.4 7.2-5.2 11.4-6.6 13.3-0.4 0.4-0.7 0.5-0.4 0.3 3.5-4.7 5.5-12.5 4.7-21"/>
	<path fill="#333" d="m211.2 257.3c1.9-2.1 4.5-3.4 7.3-3.4 5.3 0 9.1 3.8 7.7 10.2-0.9 5.8-5.8 10.2-11.1 10.2-2.9 0-5.3-1.5-6.2-3.4l-0.5 2.9h-3.8l4.8-27.2h3.8l-2 10.7zm-1 6.2c-0.5 3.8 1.5 6.2 4.8 6.2s6.2-2.4 7.2-6.2c0.5-3.8-1.5-6.2-4.8-6.2s-6.6 2-7.2 6.2zm35 7.7c-0.9 5.6-5.3 8.5-10.6 8.5-3 0-6-1.3-8.2-3.6l2.9-3c1.3 2 3.4 3 5.7 3 2.9 0 5.7-1.5 6.2-4.5l0.5-3.4c-1.9 2-4.5 3-7.2 3-4.4 0-7.2-3-6.2-9l1.5-10.1h3.8l-0.9 9.5c-0.5 4 0.5 5.6 3.8 5.6 3.4-0.1 6.2-2.7 6.8-6.1l1.5-9h3.8c-0.1 0-3.4 19.1-3.4 19.1z"/>
	<path fill="#333" d="m642.4 135.9v-4.9h2.9v28.6h-2.9v-4.9c-2.3 3.4-6.2 5.4-10.9 5.4-7.7 0-13.8-6.1-13.8-14.7-0.1-3.8 1.3-7.6 4-10.3 2.5-2.8 6.1-4.4 9.8-4.4 4.5-0.3 8.9 1.3 10.9 5.2zm-22 8.9c0 7.4 4.9 12.2 11 12.2 7.7 0 11.4-6.1 11.4-12.2s-3.7-12.2-11.4-12.2c-6 0.4-11 5.1-11 12.2zm10.7-19.4-6.9-9.4h3.6l5.7 9.4h-2.4z"/>
	<path fill="#333" opacity="0.3" d="M628.7,176.7h5.6v93.9h-5.6V176.7z M628.7,0h5.6v93.9h-5.6V0z"/>
</svg>