<svg xmlns="http://www.w3.org/2000/svg" viewBox="0 0 100 25">
	<path fill="#ffffff" d="m56 7h2.6l2.2 6.3c0.2 0.4 0.3 0.7 0.4 1s0.2 0.5 0.3 0.7 0.1 0.4 0.2 0.5c0.1 0.2 0.1 0.3 0.2 0.5 0-0.2 0.1-0.3 0.1-0.5s0.1-0.3 0.2-0.5 0.2-0.4 0.3-0.7 0.2-0.6 0.4-1l1.9-6.3h2.5l-4.3 11.6h-2.5l-4.5-11.6zm14.4 8.1c0 0.6 0.2 1.1 0.7 1.4s1 0.4 1.6 0.4c0.5 0 1-0.1 1.4-0.3s0.7-0.4 1-0.7v-2.4c-0.2-0.1-0.4-0.2-0.6-0.2-0.4-0.1-0.8-0.1-1.2-0.1-0.8 0-1.5 0.2-2.1 0.5-0.5 0.3-0.8 0.8-0.8 1.4m-2.4 0.1c0-0.6 0.1-1.2 0.4-1.7s0.6-0.9 1-1.2c0.5-0.3 1-0.6 1.5-0.7 0.6-0.2 1.2-0.3 1.9-0.3 0.5 0 0.9 0 1.4 0.1 0.3 0.1 0.6 0.2 0.9 0.3v-0.7c0-0.8-0.2-1.3-0.7-1.7-0.4-0.3-1-0.5-1.8-0.5-0.7 0-1.3 0.1-1.9 0.3s-1 0.5-1.3 0.7h-0.2v-2.1c0.2-0.1 0.3-0.2 0.5-0.3 0.3-0.1 0.6-0.2 0.8-0.3 0.3-0.1 0.7-0.2 1.1-0.3s0.8-0.1 1.2-0.1c0.6 0 1.3 0.1 1.9 0.3 0.5 0.2 1 0.4 1.5 0.8 0.4 0.3 0.8 0.8 1 1.3 0.3 0.6 0.4 1.2 0.4 1.8v7.8h-2.2v-0.9c-0.1 0.2-0.3 0.3-0.5 0.4-0.2 0.2-0.5 0.3-0.7 0.4-0.3 0.1-0.6 0.2-0.9 0.3-0.9 0.2-1.9 0.2-2.8-0.1-0.5-0.2-0.9-0.4-1.3-0.7s-0.7-0.7-0.9-1.2c-0.2-0.6-0.3-1.2-0.3-1.7m12.5-12.3h2.4v15.7h-2.4v-15.7zm5.4 4.1h2.4v11.6h-2.4v-11.6zm-0.3-3c0-0.8 0.6-1.5 1.4-1.5s1.5 0.6 1.5 1.4v0.1c0 0.8-0.7 1.4-1.4 1.5-0.8 0-1.5-0.7-1.5-1.5m7.3 11.1c0 0.6 0.2 1.1 0.7 1.4s1 0.4 1.6 0.4c0.5 0 1-0.1 1.4-0.3s0.7-0.4 1-0.7v-2.4c-0.2-0.1-0.4-0.2-0.6-0.2-0.4-0.1-0.8-0.1-1.2-0.1-0.8 0-1.5 0.2-2.1 0.5s-0.9 0.8-0.8 1.4m-2.5 0.1c0-0.6 0.1-1.2 0.4-1.7s0.6-0.9 1-1.2c0.5-0.3 1-0.6 1.5-0.7 0.6-0.2 1.2-0.3 1.9-0.3 0.5 0 0.9 0 1.4 0.1 0.3 0.1 0.6 0.2 0.9 0.3v-0.7c0-0.8-0.2-1.3-0.7-1.7-0.4-0.3-1-0.5-1.8-0.5-0.7 0-1.3 0.1-1.9 0.3s-1 0.5-1.3 0.7h-0.2v-2.1c0.2-0.1 0.3-0.2 0.5-0.3 0.3-0.1 0.6-0.2 0.8-0.3 0.3-0.1 0.7-0.2 1.1-0.3s0.8-0.1 1.2-0.1c0.6 0 1.3 0.1 1.9 0.3 0.5 0.2 1 0.4 1.5 0.8 0.4 0.3 0.8 0.8 1 1.3 0.3 0.6 0.4 1.2 0.4 1.8v7.8h-2.2v-0.9c-0.1 0.2-0.3 0.3-0.5 0.4-0.2 0.2-0.5 0.3-0.7 0.4-0.3 0.1-0.6 0.2-0.9 0.3-0.9 0.2-1.9 0.2-2.8-0.1-0.5-0.2-0.9-0.4-1.3-0.7s-0.7-0.7-0.9-1.2c-0.2-0.6-0.3-1.2-0.3-1.7m-57.5 0.4c0.2 0.2 0.6 0.5 1.1 0.7 0.5 0.3 1.1 0.4 1.7 0.4 0.5 0 1-0.1 1.5-0.3s0.9-0.5 1.2-0.8c0.3-0.4 0.6-0.8 0.8-1.3s0.3-1 0.3-1.6c0-0.5-0.1-1.1-0.3-1.6s-0.4-0.9-0.8-1.2c-0.3-0.3-0.7-0.6-1.2-0.8s-1-0.3-1.6-0.3-1.2 0.1-1.7 0.3-0.8 0.5-1.1 0.7l0.1 5.8zm-2.4 6.9v-15.5h2.2v1c0.3-0.3 0.7-0.6 1.3-0.9s1.3-0.4 2.2-0.4c0.8 0 1.5 0.1 2.2 0.4s1.3 0.7 1.8 1.2c0.5 0.6 1 1.2 1.2 1.9 0.3 0.8 0.5 1.6 0.4 2.5 0 0.9-0.1 1.7-0.5 2.5-0.3 0.7-0.7 1.4-1.2 2-1 1.1-2.5 1.7-4 1.7-0.8 0-1.5-0.1-2-0.4-0.4-0.2-0.8-0.4-1.2-0.7v4.7h-2.4zm13.3-3.9v-11.6h6.1v2.2h-3.7v9.5h-2.4zm8.1-11.6h2.4v11.6h-2.4v-11.6zm-0.3-3c0-0.8 0.6-1.4 1.4-1.5 0.8 0 1.4 0.6 1.5 1.4 0 0.8-0.6 1.4-1.4 1.5s-1.5-0.6-1.5-1.4"/>
	<path fill="#ffffff" d="m12.6 0c-3.4 3.4-2.2 7-1.7 8 0.3 0.7 1.5 2.8 1.7 3.3 0.3-0.5 1.4-2.6 1.7-3.3 0.5-1 1.7-4.6-1.7-8m-10.1 5c0.5 4.8 4 6.1 5.1 6.4 0.7 0.2 3.1 0.6 3.6 0.7-0.2-0.5-1.1-2.8-1.5-3.5-0.5-1-2.5-4.2-7.2-3.6m-2.5 11.1c4 2.6 7.2 0.6 8.1-0.1 0.6-0.5 2.4-2.1 2.8-2.5-0.5-0.2-2.8-0.8-3.6-1-1.1-0.2-4.8-0.5-7.3 3.6m7 8.9c4.5-1.5 5-5.3 5-6.5 0-0.8-0.1-3.2-0.2-3.8-0.4 0.3-2.4 1.7-3 2.2-0.8 0.8-3.4 3.6-1.8 8.1m11.2 0c1.6-4.5-1-7.3-1.9-8-0.6-0.5-2.5-1.9-3-2.2 0 0.5-0.2 3-0.2 3.8 0.1 1.1 0.6 4.9 5.1 6.4m7-8.9c-2.5-4.1-6.2-3.7-7.3-3.5-0.8 0.2-3 0.8-3.6 1 0.4 0.4 2.2 2 2.8 2.5 0.9 0.6 4.1 2.6 8.1 0m-2.5-11.1c-4.7-0.6-6.8 2.6-7.3 3.6-0.3 0.7-1.3 3-1.5 3.5 0.5-0.1 2.9-0.5 3.6-0.7 1.2-0.3 4.7-1.7 5.2-6.4"/>
</svg>
