<svg xmlns="http://www.w3.org/2000/svg" viewBox="0 0 500 285">
	<path fill="#ec008c" d="m0 0h37.7c7.1 0 12.9 1.4 17.4 4.3 4.9 3.1 8.3 6.3 11.1 11.4 2.6 4.9 3.4 9.7 3.4 14.9s-1.4 10.3-3.4 14.9c-2.6 4.9-6 8.3-11.1 11.4s-11.1 4.2-17.4 4.2h-19.1v24.3h-18.6v-85.4zm37.4 44.9c4.3 0 7.7-1.7 10.3-4.3s4-6 4-9.7-1.4-7.1-4-9.7-6-4-10.3-4h-19.1v27.4h19.1v0.3zm130.6-44.9h18.6v85.7h-18.6v-85.7zm115.2 0h16.8l37.1 51.7v-51.7h18.6v85.7h-15.4l-38.6-54.3v54h-18.6v-85.4zm192.6 85.4-25.1-35.1-7.7 8.3v27.1h-18.6v-85.7h18.6v34.9l30-34.9h23l-33.1 36.3 36.3 49.4h-23.4v-0.3z"/>
	<path fill="#333" d="m0 127.2h24.6c5.7 0 10.3 1.4 14 4.3 3.4 3.1 5.7 7.1 5.7 12 0 2.9-1.1 5.7-2.6 7.7s-3.4 4-6.3 4.9c3.4 1.1 6 2.9 7.7 5.7 1.7 2.6 2.9 5.7 2.9 9.1 0 5.7-1.7 10-5.7 12.6s-8.9 4-14.9 4h-25.4v-60.3zm24.3 25.7c8.3 0 12.6-3.1 12.6-9.1 0-3.4-1.1-5.7-3.4-7.4-2-1.4-5.4-2.6-8.6-2.6h-16.6v19.1h16zm0.6 27.1c8.9 0 13.1-3.1 13.1-9.7 0-3.4-1.1-6-4-7.7-2.6-1.7-6-2.9-10.3-2.9h-16.3v20.3h17.5zm85.4-52.8h27.4c4.3 0 7.7 1.1 11.1 2.9 3.1 1.7 5.7 4.3 7.1 7.1 1.4 3.1 2.6 6 2.6 9.7 0 4.9-1.4 9.1-4.3 12.6-3.1 3.4-7.4 5.7-13.1 6l20 22.3h-10.3l-19.4-21.4h-14v21.6h-7.4v-60.9l0.3 0.1zm26.9 31.1c4.3 0 7.7-1.1 10-3.4 2-2 3.4-5.4 3.4-8.9 0-2-0.6-4-1.4-5.7-0.6-1.7-2.6-3.4-4.3-4.6-1.7-1.1-4.3-1.7-7.1-1.7h-19.4v24.6c-0.1 0 18.8-0.3 18.8-0.3zm125.7 15.4h-30.3l-5.4 13.1h-7.7l25.1-60h7.7l23.7 60h-8.3c0 0.1-4.8-13.1-4.8-13.1zm-2.6-7.1-12.6-30.9-12.6 31.4 25.2-0.5zm76-39.4h6.9l33.7 46.6v-46.6h7.7v60h-6.9l-34.3-46.9v46.9h-7.7l0.6-60zm110.6 0h21.7c6.3 0 12.6 1.1 16.9 4 4.6 2.9 7.7 6.3 10.3 10.6 2 4.3 3.4 9.1 3.4 14.6 0 5.7-1.1 10.3-3.4 15.4-2 4.6-5.7 8.3-10.3 11.4-4.6 2.9-10.3 4.3-17.1 4.3h-21.7c-0.1-0.1 0.2-60.3 0.2-60.3zm21.7 52.2c5.4 0 9.7-1.1 12.9-3.1 3.1-2 5.7-5.4 7.7-8.6 1.4-3.4 2.6-7.4 2.6-11.4s-1.1-7.7-2.6-11.1-4.3-6-7.7-8.3-7.7-3.1-12.6-3.1h-14.3v45.4l14 0.2z"/>
	<path fill="#333" d="m213.4 262.1c0.6-1.1 2.6-1.7 4-1.7 2.9 0 4.9 2 4.3 5.7-0.3 3.1-3.1 5.7-6 5.7-1.4 0-2.9-0.6-3.4-1.7l-0.3 1.4h-2l2.6-14.9h2c0 0.1-1.2 5.5-1.2 5.5zm-0.2 3.8c-0.3 2 0.6 3.4 2.6 3.4s3.4-1.4 4-3.4c0.3-2-0.6-3.4-2.6-3.4-2-0.1-3.8 1.1-4 3.4zm19.7 4.5c-0.3 2.9-2.9 4.6-5.7 4.6-2 0-3.4-1.1-4.6-1.7l1.4-1.4c0.3 0.6 1.4 1.4 3.1 1.4 1.4 0 3.1-0.6 3.4-2.6l0.3-1.7c-1.1 1.1-2.6 1.4-4 1.4-2.6 0-4-1.4-3.4-4.6l0.6-5.4h2l-0.3 4.9c-0.3 2 0.3 2.9 2 2.9 1.4 0 3.4-1.4 3.4-3.1l0.6-4.6h2l-0.8 9.9z"/>
	<path fill="#000" d="m366.9 246.1c-7.7 0-14.9 1.1-14.9 12.9v26h5.7v-14.3c2.6 1.4 6 1.4 8.9 1.4 7.7 0 14.9-1.1 14.9-12.9 0-11.6-6.6-13.1-14.6-13.1m0 20.6c-8.9 0-8.9-1.4-8.9-7.7s0.3-7.7 8.9-7.7c8.9 0 8.9 1.7 8.9 7.7 0.2 6-0.1 7.7-8.9 7.7m-79.4-33.7-16 32-15.5-32h-6.6l19.4 38.9 0.3 0.3h5.1l19.4-39.1c0.1-0.1-6.1-0.1-6.1-0.1zm144.8 13.1c-4.3 0-14 0-14 12.9s10 12.9 14 12.9h12.9v-4.9h-12.9c-6.9 0-7.7-1.4-8.3-6.3h22.3v-1.4c0.3-13.2-9.4-13.2-14-13.2m-8.3 9.8c0.3-3.1 1.7-4.6 7.7-4.6 6.3 0 7.7 1.4 8.3 4.6h-16zm-23.7-9.8c-4.3 0-14 0-14 12.9s10 12.9 14 12.9h12.9v-4.9h-12.9c-6.9 0-7.7-1.4-8.3-6.3h22.3v-1.4c0.3-13.2-9.7-13.2-14-13.2m-8.3 9.8c0.3-3.1 1.7-4.6 7.7-4.6 6.3 0 7.7 1.4 8.3 4.6h-16zm-58.3-9.8c-4.3 0-14 0-14 12.9s10 12.9 14 12.9h12.9v-4.9h-12.9c-6.9 0-7.7-1.4-8.3-6.3h22.3v-1.4c0.6-13.2-9.1-13.2-14-13.2m-7.7 9.8c0.3-3.1 1.7-4.6 7.7-4.6 6.3 0 7.7 1.4 8.3 4.6h-16zm-24.3-9.8c-4.3 0-14 0-14 12.9s10 12.9 14 12.9h12.9v-4.9h-12.9c-6.9 0-7.7-1.4-8.3-6.3h22.3v-1.4c0.3-13.2-9.4-13.2-14-13.2m-8.2 9.8c0.3-3.1 1.7-4.6 7.7-4.6 6.3 0 7.7 1.4 8.3 4.6h-16z"/>
	<path fill="#ec008c" d="m496.6 249.9c-1.4 2-3.1 3.4-5.4 5.7-0.3 0.3-0.3 0.3-0.3 0 6.9-7.1 14-23.4 4.6-38.9-2.6 2-4.9 4.6-6.9 7.7-2.9-4.6-7.1-8.6-12.9-12 0 0-13.4 15.4-7.7 37.4-17.1 2.6-11.1 16-8.3 17.7 0 0 0.3 0 0-0.3-1.1-1.4-3.4-6.9 1.7-12 2.9-2.6 9.1-3.4 9.1-3.4-1.4-10.6-1.4-20.3 5.7-30.6 0.6 0.3 11.4 5.4 12 20.9 0.6 10-4.3 17.7-8.9 20.6-8.9 4.6-18.6 6.9-27.1 8.9-0.6 0.3-0.3 0.3 0 0.3 20.3-0.6 38-10 45.1-18.9 1.4-1.4 1.7-3.4 1.1-4.6 0.2-0.8-1.2 0.9-1.8 1.5m-3.1-12.9c-0.3-2.9-1.1-6-2-8.9 1.7-4 4-5.7 4-5.7s4.3 10.6 0.3 21.4c-2 6.9-4.9 11.1-6.3 12.6l-0.3 0.3c3.1-4.6 5.1-11.4 4.3-19.7"/>
</svg>