<svg xmlns="http://www.w3.org/2000/svg" viewBox="0 0 520 285">
	<path fill="#333" d="m175.2 257.5c0.9-1.2 2.9-2.3 4.8-2.3 3.5 0 6.1 2.6 5.1 6.7-0.6 3.8-3.8 6.7-7.4 6.7-1.9 0-3.5-0.9-4.1-2.3l-0.3 1.9h-2.6l3.2-17.8h2.6l-1.3 7.1zm-0.7 4.5c-0.3 2.6 0.9 4.1 3.2 4.1s4.1-1.6 4.8-4.1c0.3-2.6-0.9-4.1-3.2-4.1-2.2-0.1-4.5 1.3-4.8 4.1zm26.1-6.6h-2.6l-0.9 5.7c-0.3 2.3-2.6 3.8-4.5 3.8-2.3 0-2.9-0.9-2.6-3.5l0.6-6.1h-2.6l-0.9 6.4c-0.6 3.8 1.2 5.7 4.1 5.7 1.9 0 3.5-0.6 4.8-1.9l-0.3 2.3c-0.3 1.9-2.3 2.9-4.1 2.9-1.9 0-3.2-0.9-3.8-1.9l-1.9 1.9c0.9 0.9 2.9 2.3 5.4 2.3 3.5 0 6.4-1.9 7-5.4l2.3-12.2z"/>
	<path d="m359.9 238.1c-9.2 0-17.8 1.2-17.8 15.6v31.3h7v-17.2c3.2 1.6 7.4 1.6 10.9 1.6 9.5 0 17.8-1.2 17.8-15.6s-8.3-15.7-17.9-15.7m0 25.2c-10.6 0-10.9-1.9-10.9-9.5 0-7.7 0.3-9.5 10.9-9.5s10.9 2.3 10.9 9.5c0 7.3-0.3 9.5-10.9 9.5m-88.1-40.9-23.6 46.9h-6.1l-0.3-0.3-23.6-46.6h8l18.9 38.7 19.2-38.7h7.5zm166.7 15.7c-5.1 0-16.9 0-16.9 15.6s11.8 15.6 16.9 15.6h15.6v-6.1h-15.6c-8 0-9.5-1.9-9.8-7.7h27.2v-1.9c-0.2-15.5-11.7-15.5-17.4-15.5m-9.7 11.8c0.6-3.8 2.3-5.7 9.5-5.7 7.7 0 9.5 1.9 9.8 5.7h-19.3zm-29-11.8c-5.1 0-16.9 0-16.9 15.6s11.8 15.6 16.9 15.6h15.6v-6.1h-15.6c-8 0-9.5-1.9-9.8-7.7h27.2v-1.9c-0.2-15.5-12-15.5-17.4-15.5m-9.5 11.8c0.6-3.8 2.3-5.7 9.5-5.7 7.7 0 9.5 1.9 9.8 5.7h-19.3zm-70.3-11.8c-5.1 0-16.9 0-16.9 15.6s11.8 15.6 16.9 15.6h15.6v-6.1h-15.6c-8 0-9.5-1.9-9.8-7.7h27.2v-1.9c-0.2-15.5-11.6-15.5-17.4-15.5m-9.5 11.8c0.6-3.8 2.3-5.7 9.5-5.7 7.7 0 9.5 1.9 9.8 5.7h-19.3zm-29.4-11.8c-5.1 0-16.9 0-16.9 15.6s11.8 15.6 16.9 15.6h15.6v-6.1h-15.6c-8 0-9.5-1.9-9.8-7.7h27.2v-1.9c-0.1-15.5-11.6-15.5-17.4-15.5m-9.6 11.8c0.6-3.8 2.3-5.7 9.5-5.7 7.7 0 9.5 1.9 9.8 5.7h-19.3z"/>
	<path fill="#ec008c" d="m516 242.5c-1.9 2.6-3.8 4.5-6.4 6.7-0.3 0.3-0.6 0.3-0.3 0 8-8.6 16.6-28.1 5.4-46.9-3.2 2.6-6.1 5.7-8 9.5-3.5-5.4-8.6-10.3-15.3-14.4 0 0-16.3 18.5-9.2 45-20.7 2.9-13.4 19.2-9.8 21.3 0 0 0.3 0 0-0.3-1.2-1.9-4.5-8.3 2.3-14.4 3.5-3.2 11.2-4.1 11.2-4.1-1.6-12.7-1.6-24.2 7-37 0.9 0.6 13.7 6.4 14.4 25.2 0.9 11.8-5.1 21.3-10.9 24.9-10.6 5.7-22.4 8.3-32.5 10.9-0.9 0.3-0.6 0.3 0 0.3 24.2-0.9 45.9-12.1 54.2-22.7 1.6-1.9 2.3-4.1 1.2-5.4-1.1-1.1-2.7 1.1-3.3 1.4m-3.8-15.5c-0.3-3.5-1.2-7.4-2.6-10.6 2.3-4.8 4.8-6.7 4.8-6.7s5.1 12.7 0.6 25.8c-2.6 8-6.1 13.1-7.7 15-0.3 0.3-0.6 0.6-0.6 0.3 4.2-5.1 6.4-14 5.5-23.8"/>
	<path fill="#0ba100" d="m60.6 10.3-10.5 10.4c-3.8-3.5-9.8-5.7-14.7-5.7-11.8 0-19.5 8-19.5 20.7 0 9.5 5.4 18.5 19.5 18.5 5.7 0 9.5-1.9 12.4-4.1v-8h-13.7v-14.6h29v29c-6.4 8-14.7 12.7-27.5 12.7-24.7 0-35.6-16.2-35.6-33.4 0-17.9 10.6-35.8 35.8-35.8 8.9-0.3 17.8 3.2 24.8 10.3zm80.8-9.3c16.6 0.3 25.2 10.9 25.2 23 0 8.3-2.6 17.5-14.4 21.3l18.5 22.7h-21.7l-15.6-20.7h-8.6v20.7h-16.6v-67h33.2zm-16.6 31.2h16.9c6.1 0 8.6-4.8 8.6-8 0-4.1-2.6-8-8.9-8h-16.6v16zm101.7-15.9v10.6h29.6v15.3h-29.6v10.6h32.2v15.3h-48.7v-67.1h48.2v15.3h-31.7zm93.9 0v10.6h29.6v15.3h-29.6v10.6h32.2v15.3h-48.8v-67.1h48.2v15.3h-31.6zm120.6 51.7-27.2-38.3v38.3h-16.6v-67h15l25.8 36.4v-36.4h16.6v67h-13.6z"/>
	<path fill="#000" d="m35.1 117.7c12.7 0 21.7 7.4 21.7 18.5 0 6.1-3.2 11.5-9.2 14 7 2.3 11.2 8 11.2 16 0 13.7-10.9 18.9-23.9 18.9h-28.5v-66.9h28.7v-0.5zm-17.9 27.8h16.6c7 0 11.8-2.6 11.8-8.6 0-6.4-5.1-9.2-11.5-9.2h-16.9v17.8zm0 29.1h17.5c7.4 0 13.1-2.3 13.1-9.5 0-7-5.7-10.3-14-10.3h-16.6v19.8zm112.6-56.9c15.6 0 23.6 10.6 23.6 21.7 0 9.5-4.8 18.9-18.2 21l21 24.2h-14.2l-19.5-23.3h-13.4v23.3h-10.9v-67h31.6v0.1zm-20.4 34.2h20.4c8.9 0 12.7-5.7 12.7-12.1 0-6.1-3.8-11.8-12.7-11.8h-20.4v23.9zm96.1 19.2-5.7 13.7h-11.5l29.3-67h10.6l28.7 67h-11.8l-5.4-13.7h-34.2zm16.9-40.5-12.7 30.7h25.5l-12.8-30.7zm119.4 54.2-34.8-48.2v48.2h-10.9v-67h9.8l34.1 47.2v-47.3h10.9v67l-9.1 0.1zm78.1-67.1c23 0 33.5 16 33.5 32.9 0.3 17.5-10.3 34.1-33.5 34.1h-25.5v-67h25.5zm-14.6 56.6h14.7c16.6 0 23.3-12.1 23-23.6-0.3-11.2-7-22.7-23-22.7h-14.7v46.3z"/>
</svg>