<svg xmlns="http://www.w3.org/2000/svg" viewBox="0 0 500 285">
	<path fill="#ec008c" d="m0 0h37.4c7.1 0 12.8 1.4 17.4 4.3 4.9 3.1 8.3 6.3 10.8 11.4 2.6 4.9 3.4 9.4 3.4 14.8s-1.4 10.3-3.4 14.8c-2.6 4.9-6 8.3-10.8 11.4s-10.8 4.3-17.4 4.3h-19.1v24h-18.3v-85zm37.1 44.5c4.3 0 7.7-1.7 10.3-4.3s4-6 4-9.4-1.4-7.1-4-9.4c-2.6-2.6-6-4-10.3-4h-19.1v27.1h19.1zm130.7-44.5h18.3v85.3h-18.3v-85.3zm115.9 0h16.6l36.7 51.4v-51.4h18.3v85.3h-15.1l-38.2-54.2v53.7h-18.3v-84.8zm192.3 84.8-25.1-34.8-7.7 8.3v26.7h-18.3v-85h18.3v34.5l30-34.5h23.1l-32.8 36 36 49.4h-23.5v-0.6z"/>
	<path fill="#333" d="m0 126.1h24.5c5.7 0 10.3 1.4 13.7 4.3 3.4 3.1 5.7 7.1 5.7 12 0 2.9-1.1 5.7-2.6 7.7-1.4 2-3.4 4-6.3 4.9 3.4 1.1 6 2.9 7.7 5.7 1.7 2.6 2.9 5.7 2.9 9.1 0 5.7-1.7 10-5.7 12.3-4 2.6-8.8 4-14.8 4h-25.1v-60zm24 26c8.3 0 12.3-3.1 12.3-9.1 0-3.4-1.1-5.7-3.4-7.4-2-1.4-5.4-2.6-8.6-2.6h-16v19.1h15.7zm0.8 26.8c8.8 0 13.1-3.1 13.1-9.4 0-3.4-1.1-6-4-7.7-2.6-1.7-6-2.9-10.3-2.9h-16.2v20.3l17.4-0.3zm85.6-52.8h27.1c4.3 0 7.7 1.1 10.8 2.9s5.7 4.3 7.1 7.1c1.4 3.1 2.6 6 2.6 9.4 0 4.9-1.4 9.1-4.3 12.3-3.1 3.4-7.4 5.7-13.1 6l19.7 22.3h-10.3l-18.7-21.1h-13.7v21.7h-7.4c0-0.1 0.2-60.6 0.2-60.6zm26.9 31.1c4.3 0 7.7-1.1 10-3.4 2-2 3.4-5.4 3.4-8.8 0-2-0.6-4-1.4-5.7-0.9-1.7-2.6-3.4-4.3-4.6-1.7-1.1-4.3-1.7-7.1-1.7h-19.4v24.5c-0.1-0.3 18.8-0.3 18.8-0.3zm125.5 15.5h-30l-5.4 13.1h-7.7l25.1-59.6h7.7l23.7 59.6h-8l-5.4-13.1zm-2.5-7.2-12.3-30.8-12.3 31.1 24.6-0.3zm76.5-39.4h6.8l33.7 46.2v-46.2h7.7v59.6h-6.8l-34-46.8v46.8h-7.7l0.3-59.6c-0.3 0 0 0 0 0zm110.7 0h21.7c6.3 0 12.3 1.1 16.6 4 4.6 2.9 7.7 6.3 10.3 10.6 2 4.3 3.4 9.1 3.4 14.6 0 5.7-1.1 10.3-3.4 15.1-2 4.6-5.7 8.3-10.3 11.4-4.6 2.9-10.3 4.3-16.8 4.3h-21.7l0.2-60zm21.4 52.3c5.4 0 9.4-1.1 12.8-3.1 3.1-2 5.7-5.4 7.7-8.6 1.4-3.4 2.6-7.4 2.6-11.4s-1.1-7.7-2.6-10.8c-1.4-3.4-4.3-6-7.7-8.3-3.4-2-7.7-3.1-12.3-3.1h-14.3v45.4h13.8z"/>
	<path fill="#000" d="m410.1 249.3h5.1l6.6 18 6-18h5.1l-8.8 23.1h-5.1l-8.9-23.1zm24.5 16.3c0-1.1 0.3-2.3 0.9-3.4 0.6-0.9 1.1-1.7 2-2.3s2-1.1 3.1-1.4 2.6-0.6 3.7-0.6 2 0 2.9 0.3 1.4 0.3 1.7 0.6v-1.4c0-1.4-0.6-2.6-1.4-3.4-0.9-0.6-2.3-1.1-3.7-1.1s-2.6 0.3-3.7 0.6c-1.1 0.6-2 0.9-2.9 1.4h-0.3v-4c0.3 0 0.6-0.3 1.1-0.6 0.6-0.3 1.2-0.4 1.7-0.6 0.6-0.1 1.4-0.3 2.3-0.6s1.7-0.3 2.6-0.3c1.4 0 2.6 0.3 4 0.6 1.1 0.3 2.3 0.9 3.1 1.4 0.9 0.6 1.4 1.4 2 2.6 0.6 1.1 0.9 2.3 0.9 3.7v15.4h-4.3v-2l-0.9 0.9c-0.3 0.3-0.9 0.6-1.4 0.9-0.6 0.3-1.2 0.4-2 0.6-0.6 0.1-1.4 0.3-2.3 0.3-1.1 0-2.3-0.3-3.1-0.6-1.4-0.4-4.1-1.9-4.9-3.1-0.8-1.3-1.1-2.8-1.1-3.9zm4.9-0.3c0 1.1 0.6 2.3 1.4 2.9 0.9 0.6 2 0.9 3.1 0.9s2-0.3 2.9-0.6 1.4-0.9 2-1.4v-4.9c-0.3 0-0.6-0.3-1.4-0.6-0.6 0-1.4-0.3-2.6-0.3-1.7 0-3.1 0.3-4.3 0.9-0.5 0.8-1.1 2-1.1 3.1zm20.3 7.1v-31.4h4.9v31.1l-4.9 0.3zm10.5-29.1c0-0.9 0.3-1.4 0.9-2s1.1-0.9 2-0.9 1.4 0.3 2 0.9 0.9 1.1 0.9 2-0.3 1.4-0.9 2-1.1 0.9-2 0.9-1.4-0.3-2-0.9c-0.6-0.5-0.9-1.1-0.9-2zm0.6 29.1v-23.1h4.9v23.1h-4.9zm9.1-6.8c0-1.1 0.3-2.3 0.9-3.4s1.1-1.7 2-2.3 2-1.1 3.1-1.4 2.6-0.6 3.7-0.6 2 0 2.9 0.3 1.4 0.3 1.7 0.6v-1.4c0-1.4-0.6-2.6-1.4-3.4-0.9-0.6-2.3-1.1-3.7-1.1s-2.6 0.3-3.7 0.6c-1.1 0.6-2 0.9-2.9 1.4h-0.3v-4c0.3 0 0.6-0.3 1.1-0.6s1.2-0.4 1.7-0.6c0.6-0.1 1.4-0.3 2.3-0.6 0.9 0 1.7-0.3 2.6-0.3 1.4 0 2.6 0.3 4 0.6 1.1 0.3 2.3 0.9 3.1 1.4 0.9 0.6 1.4 1.4 2 2.6 0.6 1.1 0.9 2.3 0.9 3.7v15.4h-4.3v-2l-0.9 0.9c-0.3 0.3-0.9 0.6-1.4 0.9-0.6 0.3-1.2 0.4-2 0.6-0.6 0.1-1.4 0.3-2.3 0.3-1.1 0-2.3-0.3-3.1-0.6s-2-0.9-2.6-1.4c-0.9-0.6-1.6-1.3-2.1-2-1-1.5-1.3-2.5-1.3-3.6zm4.9-0.3c0 1.1 0.6 2.3 1.4 2.9 0.9 0.6 2 0.9 3.1 0.9s2-0.3 2.9-0.6 1.4-0.9 2-1.4v-4.9c-0.3 0-0.6-0.3-1.4-0.6-0.9-0.3-1.4-0.3-2.6-0.3-1.7 0-3.1 0.3-4.3 0.9-0.6 0.8-1.1 2-1.1 3.1zm-126.2 14.6v-30.5h4.3v2c0.6-0.6 1.4-1.1 2.6-1.7 1.1-0.6 2.6-0.9 4.3-0.9s3.1 0.3 4.6 0.9c1.4 0.6 2.6 1.4 3.7 2.6s2 2.3 2.6 3.7 0.9 3.1 0.9 4.9c0 1.7-0.3 3.4-0.9 4.9s-1.4 2.9-2.6 4c-1.1 1.1-2.3 2-3.7 2.6s-2.9 0.9-4.3 0.9c-1.7 0-3.1-0.3-4-0.9s-2-1.1-2.6-1.4v9.1c0-0.2-4.9-0.2-4.9-0.2zm4.9-13.5c0.3 0.6 1.1 0.9 2.3 1.4 0.9 0.6 2.3 0.9 3.4 0.9s2.3-0.3 3.1-0.6c0.9-0.3 1.7-0.9 2.3-1.7 0.6-0.6 1.1-1.4 1.4-2.6 0.3-0.9 0.6-2 0.6-3.1s-0.3-2.3-0.6-3.1c-0.3-0.9-0.9-1.7-1.4-2.6-0.6-0.6-1.4-1.1-2.3-1.7-0.9-0.3-2-0.6-3.1-0.6-1.4 0-2.6 0.3-3.4 0.6s-1.7 0.9-2.3 1.4v11.7zm22 6v-23.1h12.3v4.3h-7.4v18.8h-4.9zm15.9-29.1c0-0.9 0.3-1.4 0.9-2s1.1-0.9 2-0.9 1.4 0.3 2 0.9 0.9 1.1 0.9 2-0.3 1.4-0.9 2-1.1 0.9-2 0.9-1.4-0.3-2-0.9c-0.6-0.5-0.9-1.1-0.9-2zm0.3 29.1v-23.1h4.9v23.1h-4.9z"/>
	<path fill="#000" d="m322.5 235.3c-6.8 6.6-4.6 14-3.4 16 0.6 1.4 3.1 5.7 3.4 6.6 0.6-0.9 2.9-5.1 3.4-6.6 0.9-2 3.4-9.4-3.4-16zm-20.6 9.7c0.9 9.4 8 12.3 10.3 12.8 1.4 0.3 6.3 1.1 7.4 1.4-0.3-0.9-2.3-5.4-2.9-6.8-1.1-1.9-5.3-8.5-14.8-7.4zm-5.1 22.3c8 5.1 14.6 1.1 16.3 0 1.1-0.9 4.9-4.3 5.7-4.9-1.1-0.3-5.7-1.7-7.1-2-2.1-0.5-9.8-1.4-14.9 6.9zm14.3 17.7c9.1-3.1 10-10.6 10-12.8 0-1.4-0.3-6.3-0.3-7.4-0.9 0.6-4.9 3.4-6 4.3-1.7 1.3-6.9 7.1-3.7 15.9zm22.5 0c3.1-8.8-2-14.6-3.7-16-1.1-0.9-5.1-3.7-6-4.3 0 1.1-0.3 6-0.3 7.4 0 2.3 1.2 9.8 10 12.9zm14.3-17.7c-4.9-8.3-12.6-7.4-14.8-7.1-1.4 0.3-6.3 1.7-7.1 2 0.9 0.6 4.3 4 5.7 4.9 1.6 1.3 8.2 5.3 16.2 0.2zm-5.1-22.3c-9.4-1.1-13.7 5.1-14.8 7.1-0.6 1.4-2.6 6-2.9 6.8 1.1-0.3 6-0.9 7.4-1.4 2.3-0.2 9.4-2.8 10.3-12.5z"/>
	<path fill="#333" d="m3.4 263.6c0.9-0.9 2.3-1.7 3.7-1.7 2.9 0 4.9 2 4 5.1-0.6 3.1-3.1 5.1-5.7 5.1-1.4 0-2.9-0.9-3.1-1.7l-0.3 1.5h-2l2.6-14h2l-1.2 5.7zm-0.3 3.4c-0.3 2 0.9 3.1 2.6 3.1s3.1-1.1 3.7-3.1c0-2-0.9-3.1-2.6-3.1s-3.7 0.8-3.7 3.1zm18.6 4.3c-0.6 2.9-2.9 4.3-5.4 4.3-2 0-3.4-0.9-4.3-1.7l1.4-1.4c0.6 0.9 1.4 1.4 3.1 1.4s3.1-0.9 3.1-2.3l0.3-1.7c-0.9 0.9-2.3 1.4-3.7 1.4-2.3 0-3.7-1.4-3.1-4.6l0.9-4.9h2l-0.6 4.6c-0.3 2 0.3 2.9 2 2.9 1.4 0 3.1-1.1 3.4-3.1l0.9-4.6h2l-2 9.7z"/>
	<path fill="#000" d="m147.8 248.2c-7.1 0-14 0.9-14 12.3v24.5h5.4v-13.4c2.6 1.1 5.7 1.1 8.6 1.1 7.4 0 14-0.9 14-12.3s-6.5-12.2-14-12.2m0 20c-8.3 0-8.6-1.4-8.6-7.4s0.3-7.4 8.6-7.4 8.6 1.7 8.6 7.4c0 5.4-0.3 7.4-8.6 7.4m-74.7-32-14.8 30-14.8-30h-6.3l18.6 36.2 0.3 0.3h4.6l18.6-36.5h-6.2zm136.1 12c-4 0-13.1 0-13.1 12.3s9.1 12.3 13.1 12.3h12.3v-4.9h-12.3c-6.3 0-7.4-1.4-7.7-6h21.1v-1.4c0-12.3-8.8-12.3-13.4-12.3m-7.4 9.4c0.6-3.1 1.7-4.6 7.4-4.6 6 0 7.4 1.4 7.7 4.6h-15.1zm-22.9-9.4c-4 0-13.1 0-13.1 12.3s9.1 12.3 13.1 12.3h12.3v-4.9h-12.3c-6.3 0-7.4-1.4-7.7-6h21.1v-1.4c0.3-12.3-9.1-12.3-13.4-12.3m-7.4 9.4c0.6-3.1 1.7-4.6 7.4-4.6 6 0 7.4 1.4 7.7 4.6h-15.1zm-54.8-9.4c-4 0-13.1 0-13.1 12.3s9.1 12.3 13.1 12.3h12.3v-4.9h-12.3c-6.3 0-7.4-1.4-7.7-6h21.1v-1.4c0-12.3-8.8-12.3-13.4-12.3m-7.4 9.4c0.6-3.1 1.7-4.6 7.4-4.6 6 0 7.4 1.4 7.7 4.6h-15.1zm-23.1-9.4c-4 0-13.1 0-13.1 12.3s9.1 12.3 13.1 12.3h12.3v-4.9h-12.3c-6.3 0-7.4-1.4-7.7-6h21.1v-1.4c0.3-12.3-8.8-12.3-13.4-12.3m-7.4 9.4c0.6-3.1 1.7-4.6 7.4-4.6 6 0 7.4 1.4 7.7 4.6h-15.1z"/>
	<path fill="#ec008c" d="m269.7 251.9c-1.4 2-3.1 3.4-4.9 5.1-0.3 0.3-0.6 0.3-0.3 0 6.3-6.8 12.8-22 4.3-36.8-2.6 2-4.9 4.6-6.3 7.4-2.9-4.3-6.8-8-12-11.1 0 0-12.8 14.6-7.1 35.1-16.3 2.3-10.6 14.8-7.7 16.6 0 0 0.3 0 0-0.3-0.9-1.4-3.4-6.6 1.7-11.1 2.9-2.6 8.8-3.1 8.8-3.1-1.1-10-1.1-18.8 5.4-28.8 0.9 0.6 10.8 4.9 11.1 19.7 0.9 9.1-4 16.6-8.6 19.4-8.3 4.6-17.4 6.6-25.4 8.6-0.9 0.3-0.6 0.3 0 0.3 18.8-0.9 36-9.4 42.5-17.7 1.1-1.4 1.7-3.1 0.9-4.3-0.4-1-1.8 0.7-2.4 1m-2.9-12.3c-0.3-2.9-0.9-5.7-2-8.3 1.7-3.7 3.7-5.1 3.7-5.1s4 10 0.6 20.3c-2 6.3-4.9 10.3-6 11.7-0.3 0.3-0.6 0.6-0.6 0.3 3.5-4 5.2-11.2 4.3-18.9"/>
</svg>