<svg xmlns="http://www.w3.org/2000/svg" viewBox="0 0 40 50">
    <path fill="#ec008c" d="M36.8,31.4c-1.4,1.7-2.8,3.3-4.3,4.6c-0.2,0.2-0.4,0.2-0.2,0c5.5-6,11.5-19.4,3.7-32.6c0,0-3.1,2.1-5.6,6.5 C28,6.1,24.4,2.9,19.9,0c0,0-11.3,12.7-6.3,31.2c-14.5,2-9.2,13.2-6.9,14.9c0.1,0.1,0.2,0,0.1-0.2c-0.8-1.3-3.1-5.6,1.6-9.8 c2.5-2.3,7.8-2.8,7.8-2.8C14.9,24.3,15,16.3,21,7.4c0.8,0.5,9.6,4.4,9.9,17.5c0.7,8.2-3.5,14.8-7.6,17.3C16,46.2,7.8,48.1,0.7,49.8 C0.1,50,0.3,50,0.7,50c16.9-0.7,31.9-8.4,37.7-15.6c1.1-1.4,1.6-2.9,0.9-3.8C38.5,29.7,37.1,31.1,36.8,31.4 M34.1,20.7 c-0.2-2.5-0.8-5-1.8-7.3c1.6-3.4,3.3-4.7,3.3-4.7S39,17.6,36,26.6c-1.9,5.6-4.1,9-5.3,10.5c-0.3,0.3-0.5,0.4-0.4,0.2 C33.2,33.5,34.7,27.5,34.1,20.7"/>
</svg>
