<svg xmlns="http://www.w3.org/2000/svg" viewBox="0 0 50 50">
	<path fill="#ffffff" d="m25 0c-6.7 6.7-4.4 14-3.5 16.1 0.6 1.4 3 5.7 3.5 6.6 0.5-1 2.9-5.2 3.5-6.6 0.9-2.1 3.2-9.4-3.5-16.1m-20.2 9.9c1 9.6 8 12.2 10.2 12.8 1.5 0.4 6.2 1.2 7.3 1.4-0.4-1-2.2-5.5-2.9-6.9-1.1-2.1-5.2-8.5-14.6-7.3m-4.8 22.3c7.9 5.2 14.4 1.2 16.2-0.1 1.2-0.9 4.8-4.2 5.6-4.9-1-0.3-5.6-1.7-7.1-2-2.3-0.5-9.8-1.2-14.7 7m13.8 17.8c8.9-3.1 9.9-10.7 10-13 0-1.6-0.3-6.4-0.3-7.5-0.9 0.6-4.8 3.4-6 4.4-1.7 1.5-6.9 7.1-3.7 16.1m22.4 0c3.2-9-2-14.6-3.7-16-1.2-1-5.1-3.8-6-4.4-0.1 1.1-0.4 6-0.3 7.5 0.1 2.2 1.1 9.8 10 12.9m13.8-17.8c-4.9-8.2-12.4-7.5-14.6-7-1.5 0.3-6.1 1.7-7.1 2 0.8 0.7 4.4 4 5.6 4.9 1.7 1.3 8.2 5.2 16.1 0.1m-4.8-22.3c-9.4-1.2-13.5 5.2-14.5 7.3-0.7 1.4-2.5 5.9-2.9 6.9 1.1-0.2 5.8-1 7.3-1.4 2.1-0.6 9.1-3.2 10.1-12.8"/>
</svg>