<svg xmlns="http://www.w3.org/2000/svg" viewBox="0 0 75 35">
	<polygon fill="#ec008c" points="0 35 0 0 75 0"/>
	<path fill="#ffffff" d="m20.4 16.6c-0.5 0.6-1 1.2-1.6 1.7-0.1 0.1-0.1 0.1-0.1 0 2-2.2 4.2-7.2 1.4-12.1 0 0-1.1 0.8-2.1 2.4-0.9-1.4-2.2-2.6-3.9-3.7 0 0-4.2 4.7-2.3 11.5-5.3 0.7-3.4 4.9-2.5 5.5 0 0 0.1 0 0-0.1-0.3-0.5-1.1-2.1 0.6-3.6 0.9-0.9 2.9-1 2.9-1-0.5-3.3-0.4-6.3 1.8-9.6 0.3 0.2 3.5 1.6 3.6 6.5 0.3 3-1.3 5.5-2.8 6.4-2.7 1.5-5.7 2.2-8.3 2.8-0.2 0.1-0.1 0.1 0 0.1 6.2-0.3 11.7-3.1 13.9-5.8 0.4-0.5 0.6-1.1 0.3-1.4-0.3-0.2-0.8 0.3-0.9 0.4m-1-3.9c-0.1-0.9-0.3-1.9-0.7-2.7 0.7-1.3 1.3-1.8 1.3-1.8s1.3 3.3 0.1 6.6c-0.7 2.1-1.5 3.3-1.9 3.9-0.1 0.1-0.2 0.1-0.1 0.1 1-1.4 1.5-3.6 1.3-6.1"/>
	<path fill="#ffffff" d="m31.9 8.5c-0.1 0-0.1 0-0.1-0.1 0 0-0.5-1-2.1-1.2-0.3 0-0.7-0.1-1.2-0.1v1.2c0 0.1 0 0.1-0.1 0.1h-0.2l-3.1-2.1-0.1-0.1c0-0.1 0-0.1 0.1-0.1l3.1-2.1h0.2l0.1 0.1v1.1c0.6 0.2 3.5 0.7 3.5 3.2l-0.1 0.1z"/>
</svg>
