<svg xmlns="http://www.w3.org/2000/svg" viewBox="0 0 75 35">
	<polygon fill="#000000" points="0 35 0 0 75 0"/>
	<path fill="#ffffff" d="m14.2 5c-2.5 2.5-1.6 5.2-1.3 6 0.2 0.5 1.1 2.1 1.3 2.4 0.2-0.4 1.1-1.9 1.3-2.4 0.4-0.8 1.2-3.5-1.3-6m-7.4 3.7c0.4 3.6 3 4.5 3.8 4.7 0.6 0.1 2.3 0.4 2.7 0.5-0.1-0.4-0.8-2-1.1-2.6-0.4-0.7-1.9-3.1-5.4-2.6m-1.8 8.2c2.9 1.9 5.3 0.4 6 0 0.4-0.3 1.8-1.6 2.1-1.8-0.4-0.1-2.1-0.6-2.6-0.7-0.9-0.3-3.7-0.5-5.5 2.5m5.1 6.6c3.3-1.1 3.7-4 3.7-4.8 0-0.6-0.1-2.4-0.1-2.8-0.3 0.2-1.8 1.3-2.2 1.6-0.7 0.6-2.6 2.7-1.4 6m8.3 0c1.2-3.3-0.7-5.4-1.4-5.9-0.4-0.4-1.9-1.4-2.2-1.6 0 0.4-0.1 2.2-0.1 2.8 0 0.7 0.4 3.6 3.7 4.7m5.1-6.6c-1.8-3-4.6-2.8-5.4-2.6-0.6 0.1-2.3 0.6-2.6 0.7 0.3 0.3 1.6 1.5 2.1 1.8 0.6 0.6 3 2 5.9 0.1m-1.8-8.2c-3.5-0.4-5 1.9-5.4 2.7-0.3 0.5-0.9 2.2-1.1 2.6 0.4-0.1 2.1-0.4 2.7-0.5 0.9-0.3 3.5-1.3 3.8-4.8"/>
	<path fill="#ffffff" d="m31.9 8.5c-0.1 0-0.1 0-0.1-0.1 0 0-0.5-1-2.1-1.2-0.3 0-0.7-0.1-1.2-0.1v1.2c0 0.1 0 0.1-0.1 0.1h-0.2l-3.1-2.1-0.1-0.1c0-0.1 0-0.1 0.1-0.1l3.1-2.1h0.2l0.1 0.1v1.1c0.6 0.2 3.5 0.7 3.5 3.2l-0.1 0.1z"/>
</svg>
