<svg xmlns="http://www.w3.org/2000/svg" viewBox="0 0 2000 210">
	<rect fill="#00b67a" x="1595.1" y="1.5" width="194.4" height="194.4"/>
	<path fill="#ffffff" d="m1721.8 125 12.4 38.1-41.9-30.6 29.5-7.5zm-29.6-90.7-16 49h-52l42.1 30.4-16 49 42.1-30.4 25.9-18.6 41.9-30.4h-52l-16-49z"/>
	<rect fill="#00b67a" x="1384.5" y="1.5" width="194.4" height="194.4"/>
	<path fill="#ffffff" d="m1497.7 83.3h52l-41.9 30.4-25.9 18.6-42.1 30.4 16-49-42.1-30.4h52l16-49 16 49zm-16 49.2 41.9 30.6-12.4-38.1-29.5 7.5z"/>
	<rect fill="#00b67a" x="1173.9" y="1.5" width="194.4" height="194.4"/>
	<path fill="#ffffff" d="m1300.7 125 12.4 38.1-41.9-30.6 29.5-7.5zm-29.6-90.7-16 49h-52l42.1 30.4-16 49 42.1-30.4 25.9-18.6 41.9-30.4h-52l-16-49z"/>
	<rect fill="#00b67a" x="963.4" y="1.5" width="194.4" height="194.4"/>
	<path fill="#ffffff" d="m1090.1 125 12.4 38.1-41.9-30.6 29.5-7.5zm-29.6-90.7-16 49h-52l42.1 30.4-16 49 42.1-30.4 25.9-18.6 41.9-30.4h-52l-16-49z"/>
	<path d="m223.3 75.4h85.9v16h-33.8v90.2h-18.5v-90.2h-33.7l0.1-16zm82.2 29.3h15.9v14.9h0.3c0.6-2.1 1.6-4.1 3-6.1s3.1-3.8 5.2-5.4c2-1.7 4.2-3 6.8-4 2.4-1 5-1.6 7.5-1.6 2 0 3.4 0.1 4.1 0.1 0.7 0.1 1.6 0.3 2.3 0.3v16.3c-1.1-0.3-2.4-0.4-3.7-0.6s-2.4-0.3-3.7-0.3c-2.8 0-5.5 0.6-8.1 1.7-2.5 1.1-4.7 2.8-6.7 5-1.8 2.3-3.4 5-4.5 8.2s-1.7 7.1-1.7 11.3v36.5h-17l0.3-76.3zm122.9 76.8h-16.7v-10.8h-0.3c-2.1 4-5.2 6.9-9.3 9.3s-8.4 3.5-12.6 3.5c-10.1 0-17.4-2.4-21.9-7.5-4.5-5-6.8-12.6-6.8-22.7v-48.8h17v47.1c0 6.8 1.3 11.6 4 14.3 2.5 2.8 6.2 4.2 10.9 4.2 3.5 0 6.5-0.6 8.9-1.7s4.4-2.5 5.8-4.4c1.6-1.8 2.5-4.1 3.3-6.7 0.7-2.5 1-5.4 1-8.4v-44.6h17v76.9h-0.3zm28.9-24.6c0.6 5 2.4 8.4 5.7 10.5 3.3 2 7.2 3 11.8 3 1.6 0 3.4-0.1 5.4-0.4s4-0.7 5.7-1.4c1.8-0.7 3.3-1.7 4.4-3.1s1.7-3.1 1.6-5.2-0.8-4-2.4-5.4-3.4-2.4-5.7-3.4c-2.3-0.8-5-1.6-7.9-2.1-3-0.6-5.9-1.3-9.1-2-3.1-0.7-6.2-1.6-9.2-2.5-3-1-5.5-2.3-7.9-4.1-2.3-1.7-4.2-3.8-5.5-6.5-1.4-2.7-2.1-5.8-2.1-9.8 0-4.2 1-7.6 3.1-10.5 2-2.8 4.7-5.1 7.8-6.8s6.7-3 10.5-3.7 7.5-1 10.9-1c4 0 7.8 0.4 11.3 1.3s6.9 2.1 9.8 4.1c3 1.8 5.4 4.4 7.2 7.4 2 3 3.1 6.7 3.7 10.9h-17.7c-0.8-4.1-2.7-6.8-5.5-8.2-3-1.4-6.2-2.1-10.1-2.1-1.1 0-2.7 0.1-4.2 0.3-1.7 0.3-3.1 0.6-4.7 1.1-1.4 0.6-2.7 1.4-3.7 2.4s-1.6 2.4-1.6 4.1c0 2.1 0.7 3.7 2.1 5s3.3 2.3 5.7 3.3c2.3 0.8 5 1.6 7.9 2.1 3 0.6 6.1 1.3 9.2 2s6.1 1.6 9.1 2.5c3 1 5.7 2.3 7.9 4.1 2.3 1.7 4.2 3.8 5.7 6.4 1.4 2.5 2.1 5.8 2.1 9.5 0 4.5-1 8.4-3.1 11.6-2.1 3.1-4.8 5.8-8.1 7.8s-7.1 3.4-11 4.4c-4.1 0.8-8.1 1.4-12 1.4-4.8 0-9.3-0.6-13.4-1.7s-7.8-2.8-10.8-5c-3-2.3-5.4-5-7.1-8.4-1.7-3.3-2.7-7.2-2.8-11.9h17.1v0.1h-0.1zm55.9-52.2h12.9v-23.3h17v23.1h15.3v12.6h-15.3v41.1c0 1.8 0.1 3.3 0.3 4.7 0.1 1.3 0.6 2.4 1 3.3 0.6 0.8 1.4 1.6 2.4 2 1.1 0.4 2.5 0.7 4.5 0.7 1.1 0 2.4 0 3.5-0.1s2.4-0.3 3.5-0.6v13.2c-1.8 0.3-3.7 0.4-5.5 0.6-1.8 0.3-3.5 0.3-5.5 0.3-4.5 0-8.1-0.4-10.8-1.3-2.7-0.8-4.8-2.1-6.4-3.7-1.6-1.7-2.5-3.7-3.1-6.1s-0.8-5.4-1-8.5v-45.3h-12.9v-12.9 0.2zm57.1 0h16v10.5h0.3c2.4-4.5 5.7-7.6 9.9-9.6s8.8-3 13.9-3c6.1 0 11.3 1 15.9 3.3 4.5 2.1 8.2 5 11.2 8.8 3 3.7 5.2 8.1 6.7 13 1.4 5 2.3 10.3 2.3 15.9 0 5.2-0.7 10.2-2 15-1.4 4.8-3.4 9.2-6.1 12.9s-6.1 6.7-10.3 8.9c-4.2 2.3-9.1 3.4-14.7 3.4-2.4 0-5-0.3-7.4-0.7s-4.8-1.1-7.1-2.1-4.4-2.3-6.2-3.8c-2-1.6-3.5-3.4-4.8-5.4h-0.3v38.2h-17v-105.3h-0.3zm59.3 38.5c0-3.4-0.4-6.8-1.4-10.1-0.8-3.3-2.3-6.1-4.1-8.6s-4.1-4.5-6.7-6.1c-2.7-1.6-5.8-2.3-9.2-2.3-7.1 0-12.5 2.4-16.1 7.4-3.5 5-5.4 11.6-5.4 19.8 0 4 0.4 7.5 1.4 10.8s2.3 6.1 4.2 8.5c1.8 2.4 4.1 4.2 6.8 5.7 2.7 1.4 5.7 2.1 9.2 2.1 4 0 7.1-0.8 9.8-2.4s4.8-3.7 6.7-6.1c1.7-2.5 3-5.4 3.7-8.6 0.7-3.5 1.1-6.7 1.1-10.1zm29.9-67.8h17v16h-17v-16zm0 29.3h17v76.9h-17v-76.9zm32.1-29.3h17v106.2h-17v-106.2zm68.8 108.3c-6.1 0-11.6-1-16.4-3.1s-8.8-4.8-12.2-8.4c-3.3-3.5-5.8-7.9-7.5-12.9s-2.7-10.5-2.7-16.3 0.8-11.2 2.7-16.1c1.7-5 4.2-9.2 7.5-12.9 3.3-3.5 7.4-6.4 12.2-8.4s10.3-3.1 16.4-3.1 11.6 1 16.4 3.1c4.8 2 8.8 4.8 12.2 8.4 3.3 3.5 5.8 7.9 7.5 12.9s2.7 10.3 2.7 16.1c0 5.9-0.8 11.3-2.7 16.3s-4.2 9.2-7.5 12.9c-3.3 3.5-7.4 6.4-12.2 8.4-4.8 1.9-10.2 3.1-16.4 3.1zm0-13.5c3.7 0 7.1-0.8 9.8-2.4 2.8-1.6 5-3.7 6.8-6.2s3.1-5.5 4-8.6c0.8-3.3 1.3-6.5 1.3-9.9 0-3.3-0.4-6.5-1.3-9.8-0.8-3.3-2.1-6.1-4-8.6s-4.1-4.5-6.8-6.1c-2.8-1.6-6.1-2.4-9.8-2.4s-7.1 0.8-9.8 2.4c-2.8 1.6-5 3.7-6.8 6.1-1.8 2.5-3.1 5.4-4 8.6-0.8 3.3-1.3 6.5-1.3 9.8 0 3.4 0.4 6.7 1.3 9.9 0.8 3.3 2.1 6.1 4 8.6 1.8 2.5 4.1 4.7 6.8 6.2 2.9 1.7 6.1 2.4 9.8 2.4zm43.9-65.5h12.9v-23.3h17v23.1h15.3v12.6h-15.3v41.1c0 1.8 0.1 3.3 0.3 4.7 0.1 1.3 0.6 2.4 1 3.3 0.6 0.8 1.4 1.6 2.4 2 1.1 0.4 2.5 0.7 4.5 0.7 1.1 0 2.4 0 3.5-0.1s2.4-0.3 3.5-0.6v13.2c-1.8 0.3-3.7 0.4-5.5 0.6-1.8 0.3-3.5 0.3-5.5 0.3-4.5 0-8.1-0.4-10.8-1.3-2.7-0.8-4.8-2.1-6.4-3.7-1.6-1.7-2.5-3.7-3.1-6.1s-0.8-5.4-1-8.5v-45.3h-12.9v-12.9 0.2z"/>
	<path fill="#00b67a" d="m203.4 75.4h-77.7l-23.9-73.9-24.1 73.9-77.7-0.2 62.9 45.7-24.1 73.9 62.9-45.7 62.9 45.7-23.9-73.9 62.7-45.5z"/>
	<path fill="#005128" d="m146 137.7-5.4-16.7-38.8 28.2 44.2-11.5z"/>
</svg>