<svg version="1.2" xmlns="http://www.w3.org/2000/svg" viewBox="0 0 395 395" width="395" height="395">
	<title>Objeto inteligente vectorial-ai</title>
	<style>
		.s0 { fill: #5aab9f } 
	</style>
	<g id="Modo de aislamiento">
		<g id="&lt;Group&gt;">
			<path id="&lt;Path&gt;" class="s0" d="m84.1 221.7c0-29.6-0.1-59.2 0-88.9 0-9.1 5.3-15.4 13.9-16.7 8.6-1.3 17 5.2 17.8 13.9 0.2 1.8 0.2 3.7 0.2 5.6q0 84.5 0 169.1c0 13.4 6 19.4 19.5 19.4q60.7 0 121.5 0c13-0.1 19.1-6.2 19.1-19 0-57 0.1-114 0-171 0-6.5 1.7-11.8 7.3-15.5 10.3-6.7 23.8 0.1 24.6 12.4q0 1.1 0 2.2c0 58.1 0.1 116.3 0 174.4-0.1 22.8-14.6 41.5-36.3 46.9-4.1 1-8.4 1.4-12.7 1.4q-63 0.1-126 0c-24.9 0-44.2-16.2-48.4-40.5-0.5-3.2-0.5-6.5-0.5-9.7 0-28 0-56 0-84z"/>
			<path id="&lt;Path&gt;" class="s0" d="m249.5 67.9q2 0 4.1 0c18 0 36-0.1 54 0 9.6 0.1 16.7 7.4 16.5 16.3-0.2 9-7.2 15.7-16.7 15.7q-111.4 0.1-222.8 0c-9.4 0-16.4-6.7-16.6-15.7-0.2-8.9 6.9-16.2 16.5-16.3 18-0.1 36 0 54 0 1.4 0 2.7 0 5.1 0-1.5-0.9-2.1-1.3-2.8-1.7-6.7-3.7-10-10.8-8.4-18 1.7-7.2 8-12.1 16-12.2 29.1 0 58.3 0 87.4 0 2.8 0 5.5 0 8.3 0 7.7 0.2 13.9 5.1 15.5 12.2 1.7 7.2-1.6 14.3-8.3 18q-1 0.5-1.9 1 0 0.3 0.1 0.7z"/>
			<path id="&lt;Path&gt;" class="s0" d="m148 212.1c0-21.4 0-42.7 0.1-64.1 0-7.9 5.6-14.5 12.9-15.7 7.9-1.4 15.3 2.7 17.9 10.1 0.8 2.2 1.2 4.7 1.2 7q0 62.6 0 125.2c0 9.5-5.8 16.4-14.3 17.3-8.2 0.9-15.7-4.5-17.4-12.7-0.4-1.7-0.4-3.5-0.4-5.2q0-31 0-61.9z"/>
			<path id="&lt;Path&gt;" class="s0" d="m244.1 212.1c0 21.3 0 42.5-0.1 63.7 0 7.8-4.8 13.7-12.1 15.7-6.7 1.7-14.1-1.1-17.4-7.2-1.4-2.8-2.4-6.2-2.4-9.3-0.2-42-0.1-84-0.1-126 0-10 6.8-17 16.1-17 9.3 0.1 15.9 7.1 16 17.1 0 21 0 42 0 63z"/>
		</g>
	</g>
</svg>