<svg version="1.2" xmlns="http://www.w3.org/2000/svg" viewBox="0 0 1366 1366" width="1366" height="1366">
	<title>Objeto inteligente vectorial-ai</title>
	<style>
		.s0 { fill: #575550 } 
	</style>
	<g id="Modo de aislamiento">
		<g id="g364">
			<g id="g370">
				<g id="path372">
					<path id="&lt;Compound Path&gt;" fill-rule="evenodd" class="s0" d="m682.7 1366c-92.2 0-181.6-18.1-265.8-53.7-81.3-34.3-154.3-83.6-217-146.2-62.6-62.7-111.9-135.7-146.2-217-35.6-84.2-53.7-173.6-53.7-265.8 0-92.1 18.1-181.5 53.7-265.7 34.3-81.3 83.6-154.3 146.2-217 62.7-62.7 135.7-111.9 217-146.3 84.2-35.6 173.6-53.6 265.8-53.6 92.1 0 181.5 18 265.7 53.6 81.3 34.4 154.3 83.6 217 146.3 62.7 62.7 111.9 135.7 146.3 217 35.6 84.2 53.6 173.6 53.6 265.7 0 92.2-18 181.6-53.6 265.8-34.4 81.3-83.6 154.3-146.3 217-62.7 62.6-135.7 111.9-217 146.2-84.2 35.6-173.6 53.7-265.7 53.7zm0-1285.3c-332.3 0-602.7 270.3-602.7 602.6 0 332.3 270.4 602.7 602.7 602.7 332.3 0 602.6-270.4 602.6-602.7 0-332.3-270.3-602.6-602.6-602.6z"/>
				</g>
			</g>
			<g id="g374">
				<g id="path376">
					<path id="&lt;Compound Path&gt;" fill-rule="evenodd" class="s0" d="m682.7 894.7c-163.8 0-297.1-133.3-297.1-297.1 0-163.8 133.3-297 297.1-297 163.8 0 297 133.2 297 297 0 163.8-133.2 297.1-297 297.1zm0-514.1c-119.7 0-217.1 97.4-217.1 217 0 119.7 97.4 217.1 217.1 217.1 119.7 0 217-97.4 217-217.1 0-119.6-97.3-217-217-217z"/>
				</g>
			</g>
			<g id="g378">
				<g id="path380">
					<path id="&lt;Path&gt;" class="s0" d="m1066 1239.1c-20.2 0-37.5-15.2-39.7-35.7-18.7-176-166.4-308.7-343.6-308.7-177.3 0-325 132.7-343.7 308.7-2.3 21.9-22 37.9-44 35.5-22-2.3-37.9-22-35.5-44 11-103.9 59.9-199.9 137.7-270.2 78.3-70.9 179.7-110 285.5-110 105.7 0 207.1 39.1 285.5 110 77.7 70.4 126.6 166.3 137.7 270.2 2.3 22-13.6 41.7-35.6 44q-2.1 0.2-4.3 0.2z"/>
				</g>
			</g>
		</g>
	</g>
</svg>