<?xml version="1.0" encoding="utf-8"?>
<!-- Generator: Adobe Illustrator 24.0.0, SVG Export Plug-In . SVG Version: 6.00 Build 0)  -->
<svg version="1.1" id="svg8" xmlns="http://www.w3.org/2000/svg" xmlns:xlink="http://www.w3.org/1999/xlink" x="0px" y="0px"
	 viewBox="0 0 512 512" style="enable-background:new 0 0 512 512;" xml:space="preserve">
<style type="text/css">
	.st0{fill:#5aab9f;}
</style>
<title>casa</title>
<path class="st0" d="M401.4,38.7c0-6.1-0.1-11.7,0-17.4c0.2-10.6,8-18.5,18.1-18.5c10.1,0,17.8,8,18,18.6c0.1,5.6,0,11.3,0,17.6
	c5.6,0,10.8,0,16,0c32.9,0.1,56.4,23.4,56.4,56.4c0.1,119.7,0,239.3,0,359c0,33-23.4,56.5-56.3,56.5c-131.5,0-262.9,0-394.4,0
	C26.5,510.9,3,487.4,3,454.5c0-119.7,0-239.3,0-359c0-32.9,23.5-56.3,56.4-56.4c5.1,0,10.1,0,16,0c0-5.7,0-11.1,0-16.5
	c0.1-11.6,7.5-19.7,18-19.8c10.5,0,18.1,8.1,18.2,19.6c0,5.3,0,10.6,0,16.2C208.2,38.7,304.4,38.7,401.4,38.7z M39.2,184.5
	c0,2.3,0,4.1,0,6c0,87.5,0,175,0,262.6c0,14.7,6.8,21.6,21.4,21.6c130.5,0,261,0,391.5,0c15,0,21.7-6.7,21.7-21.8
	c0-87.3,0-174.7,0-262c0-2,0-4,0-6.3C328.8,184.5,184.4,184.5,39.2,184.5z M39.3,147.6c145.2,0,289.7,0,434.5,0c0-17,0-33.6,0-50.2
	c0-15.3-6.7-22-22.1-22c-130.1,0-260.2,0-390.3,0c-1.7,0-3.4-0.1-5.1,0c-9.1,0.6-16.7,7.7-16.9,16.8C39,110.5,39.3,128.9,39.3,147.6
	z"/>
<path class="st0" d="M129.8,275c-6,0-12.1,0.1-18.1,0c-10.2-0.3-18-8.1-18.1-17.9c-0.1-10.1,7.8-18.1,18.3-18.3
	c11.9-0.2,23.8-0.1,35.6,0c10.5,0.1,18.5,8.1,18.4,18.2c-0.1,10.1-8,17.8-18.6,18C141.5,275.1,135.6,275,129.8,275z"/>
<path class="st0" d="M256.3,238.7c6,0,12.1-0.1,18.1,0c10.5,0.2,18.4,8.3,18.3,18.4c-0.1,9.9-8,17.7-18.2,17.8
	c-12.1,0.2-24.1,0.2-36.2,0c-10.2-0.2-18-8.2-18-18.1c0-9.9,7.7-17.8,17.9-18.1C244.3,238.6,250.3,238.7,256.3,238.7z"/>
<path class="st0" d="M382.9,275c-5.8,0-11.7,0.1-17.5,0c-10.5-0.2-18.4-8.3-18.3-18.4c0.1-9.9,7.9-17.7,18.2-17.9
	c12.1-0.2,24.1-0.2,36.2,0c10.2,0.2,18,8.2,18,18c0,9.9-7.7,17.9-17.9,18.2C395.3,275.2,389.1,275,382.9,275z"/>
<path class="st0" d="M129.7,347.6c-6,0-12.1,0.1-18.1,0c-10.2-0.3-18-8.2-18-18.1c0-9.9,7.7-18,17.9-18.1c12.2-0.2,24.5-0.2,36.8,0
	c10.1,0.2,17.9,8.4,17.8,18.3c-0.1,9.6-7.7,17.5-17.6,17.9C142.1,347.8,135.9,347.6,129.7,347.6z"/>
<path class="st0" d="M256.7,347.6c-6,0-12.1,0.1-18.1,0c-10.5-0.2-18.4-8.3-18.3-18.4c0.1-9.9,7.9-17.7,18.2-17.8
	c12.1-0.2,24.1-0.2,36.2,0c10.2,0.2,18,8.2,18,18.1c0,9.9-7.8,17.8-17.9,18.1C268.7,347.8,262.7,347.6,256.7,347.6z"/>
<path class="st0" d="M383.1,347.6c-6,0-12.1,0.1-18.1,0c-10.2-0.3-18-8.3-17.9-18.1c0-9.9,7.7-17.9,18-18.1
	c12.3-0.2,24.5-0.2,36.8,0c9.9,0.2,17.5,8.2,17.7,17.8c0.1,9.9-7.6,18-17.7,18.4C395.5,347.8,389.3,347.6,383.1,347.6z"/>
<path class="st0" d="M129.8,420.2c-6,0-12.1,0.1-18.1,0c-10.2-0.3-18-8.1-18.1-18c-0.1-10.1,7.8-18.1,18.3-18.3
	c11.9-0.2,23.8-0.1,35.6,0c10.5,0.1,18.5,8.1,18.4,18.2c-0.1,10.1-8,17.8-18.6,18C141.5,420.3,135.6,420.2,129.8,420.2z"/>
<path class="st0" d="M256.3,420.2c-5.8,0-11.7,0.1-17.5,0c-10.5-0.2-18.5-8.1-18.4-18.2c0-10.1,7.9-17.9,18.6-18
	c11.7-0.1,23.4-0.1,35.1,0c10.6,0.1,18.6,7.8,18.7,17.9c0.1,10.3-7.9,18.2-18.9,18.3C268,420.3,262.1,420.2,256.3,420.2z"/>
<path class="st0" d="M383.2,383.9c6,0,12.1-0.1,18.1,0c10.2,0.3,18,8.1,18.1,18c0.1,9.9-7.7,18-17.8,18.2c-12.2,0.2-24.5,0.2-36.8,0
	c-10.1-0.2-17.9-8.4-17.8-18.2c0.1-9.9,7.8-17.7,18.1-17.9C371.2,383.8,377.2,383.9,383.2,383.9z"/>
</svg>
